<svg xmlns="http://www.w3.org/2000/svg" width="805" height="600"><rect width="805" height="600" x="0" y="0" fill="#FFFFFF" id="backgorund"/><g id="viz"><g transform="translate(0,0)"><g id="pie" transform="translate(201.25,154)"><path fill="#1f77b4" stroke="#FFFFFF" d="M4.239315370989448e-15,-69.2332740173089A69.2332740173089,69.2332740173089,0,1,1,4.239315370989448e-15,69.2332740173089L0,0Z"/><path fill="#ff7f0e" stroke="#FFFFFF" d="M4.239315370989448e-15,69.2332740173089A69.2332740173089,69.2332740173089,0,1,1,-1.2717946112968344e-14,-69.2332740173089L0,0Z"/><g id="labels"><g transform="translate(34.61663700865445,0)"><text text-anchor="middle" style="font-family: Arial, sans-serif; font-size: 10px; fill: black; font-weight: normal;">92</text></g><g transform="translate(-34.61663700865445,4.239315370989448e-15)"><text text-anchor="middle" style="font-family: Arial, sans-serif; font-size: 10px; fill: black; font-weight: normal;">92</text></g></g></g><text y="80.7667259826911" x="201.25" style="font-family: Arial, sans-serif; font-size: 12px; fill: black; font-weight: bold; dominant-baseline: auto; text-anchor: middle;">E</text></g><g transform="translate(402.5,0)"><g id="pie" transform="translate(201.25,154)"><path fill="#1f77b4" stroke="#FFFFFF" d="M6.6149386589670115e-15,-108.03014654629546A108.03014654629546,108.03014654629546,0,0,1,105.32160522507627,24.038969104919175L0,0Z"/><path fill="#ff7f0e" stroke="#FFFFFF" d="M105.32160522507627,24.038969104919175A108.03014654629546,108.03014654629546,0,1,1,-1.9844815976901034e-14,-108.03014654629546L0,0Z"/><g id="labels"><g transform="translate(42.230684812764345,-33.67784733245985)"><text text-anchor="middle" style="font-family: Arial, sans-serif; font-size: 10px; fill: black; font-weight: normal;">128</text></g><g transform="translate(-42.23068481276434,33.677847332459855)"><text text-anchor="middle" style="font-family: Arial, sans-serif; font-size: 10px; fill: black; font-weight: normal;">320</text></g></g></g><text y="41.969853453704545" x="201.25" style="font-family: Arial, sans-serif; font-size: 12px; fill: black; font-weight: bold; dominant-baseline: auto; text-anchor: middle;">G</text></g><g transform="translate(0,300)"><g id="pie" transform="translate(201.25,154)"><path fill="#1f77b4" stroke="#FFFFFF" d="M8.817456953860943e-15,-144A144,144,0,1,1,-138.22507010258744,40.37115300725005L0,0Z"/><path fill="#ff7f0e" stroke="#FFFFFF" d="M-138.22507010258744,40.37115300725005A144,144,0,0,1,-2.6452370861582827e-14,-144L0,0Z"/><g id="labels"><g transform="translate(57.60799210292353,43.189341808709)"><text text-anchor="middle" style="font-family: Arial, sans-serif; font-size: 10px; fill: black; font-weight: normal;">561</text></g><g transform="translate(-57.607992102923525,-43.189341808709024)"><text text-anchor="middle" style="font-family: Arial, sans-serif; font-size: 10px; fill: black; font-weight: normal;">235</text></g></g></g><text y="6" x="201.25" style="font-family: Arial, sans-serif; font-size: 12px; fill: black; font-weight: bold; dominant-baseline: auto; text-anchor: middle;">P</text></g></g></svg>